<?xml version="1.0" encoding="UTF-8"?>
<svg width="1400" height="1000" viewBox="0 0 1400 1000" xmlns="http://www.w3.org/2000/svg">
  <defs>
    <!-- Gradients for different story threads -->
    <radialGradient id="origin" cx="50%" cy="50%" r="50%">
      <stop offset="0%" style="stop-color:#ffffff;stop-opacity:1"/>
      <stop offset="100%" style="stop-color:#4a90e2;stop-opacity:0.3"/>
    </radialGradient>
    
    <radialGradient id="putthathere" cx="50%" cy="50%" r="50%">
      <stop offset="0%" style="stop-color:#e74c3c;stop-opacity:0.9"/>
      <stop offset="100%" style="stop-color:#8b0000;stop-opacity:0.2"/>
    </radialGradient>
    
    <radialGradient id="lloooomm" cx="50%" cy="50%" r="50%">
      <stop offset="0%" style="stop-color:#9b59b6;stop-opacity:0.9"/>
      <stop offset="100%" style="stop-color:#2c1810;stop-opacity:0.2"/>
    </radialGradient>
    
    <radialGradient id="consciousness" cx="50%" cy="50%" r="50%">
      <stop offset="0%" style="stop-color:#00ff88;stop-opacity:0.8"/>
      <stop offset="100%" style="stop-color:#004422;stop-opacity:0.2"/>
    </radialGradient>
    
    <radialGradient id="temporal" cx="50%" cy="50%" r="50%">
      <stop offset="0%" style="stop-color:#f39c12;stop-opacity:0.8"/>
      <stop offset="100%" style="stop-color:#8b4513;stop-opacity:0.2"/>
    </radialGradient>
    
    <!-- Glow effects -->
    <filter id="glow" x="-50%" y="-50%" width="200%" height="200%">
      <feGaussianBlur stdDeviation="3" result="coloredBlur"/>
      <feMerge> 
        <feMergeNode in="coloredBlur"/>
        <feMergeNode in="SourceGraphic"/>
      </feMerge>
    </filter>
    
    <!-- Conspiracy board texture -->
    <pattern id="corkboard" x="0" y="0" width="100" height="100" patternUnits="userSpaceOnUse">
      <rect width="100" height="100" fill="#2c1810"/>
      <circle cx="20" cy="20" r="1" fill="#4a3728"/>
      <circle cx="80" cy="60" r="1" fill="#4a3728"/>
      <circle cx="50" cy="90" r="1" fill="#4a3728"/>
      <circle cx="10" cy="70" r="1" fill="#4a3728"/>
      <circle cx="90" cy="30" r="1" fill="#4a3728"/>
    </pattern>
  </defs>
  
  <!-- Cork board background -->
  <rect width="1400" height="1000" fill="url(#corkboard)"/>
  
  <!-- Title -->
  <text x="700" y="40" text-anchor="middle" fill="#ffffff" font-family="serif" font-size="28" font-weight="bold" filter="url(#glow)">LLOOOOMM UNIVERSE CONSPIRACY BOARD</text>
  <text x="700" y="70" text-anchor="middle" fill="#f39c12" font-family="monospace" font-size="14">Spiraling Fractal Storyline • Spaghetti Theory Visualization</text>
  
  <!-- Central Origin Point -->
  <g transform="translate(700,500)">
    <!-- Core spiral -->
    <circle r="40" fill="url(#origin)" stroke="#ffffff" stroke-width="3" filter="url(#glow)"/>
    <text x="0" y="-5" text-anchor="middle" fill="#000000" font-family="serif" font-size="14" font-weight="bold">ORIGIN</text>
    <text x="0" y="10" text-anchor="middle" fill="#000000" font-family="serif" font-size="12">Universal Vocabulary</text>
    <text x="0" y="25" text-anchor="middle" fill="#000000" font-family="serif" font-size="10">Content Management</text>
    
    <!-- First spiral arm: PutThatThere Evolution -->
    <g>
      <!-- Spiral path calculation: r = a + b*θ -->
      <path d="M 0,0 Q 60,20 120,0 Q 140,80 80,160 Q -20,180 -120,120 Q -160,20 -80,-80 Q 40,-120 160,-40 Q 200,60 120,180 Q -40,220 -200,140 Q -260,0 -140,-140 Q 60,-200 240,-60" 
            stroke="#e74c3c" stroke-width="3" fill="none" opacity="0.7" stroke-dasharray="10,5"/>
      
      <!-- PutThatThere nodes along spiral -->
      <g transform="rotate(30)">
        <g transform="translate(80,0)">
          <ellipse rx="35" ry="20" fill="url(#putthathere)" stroke="#e74c3c" stroke-width="2" opacity="0.8"/>
          <text x="0" y="0" text-anchor="middle" fill="#ffffff" font-family="serif" font-size="10" font-weight="bold">PutThatThere</text>
          <text x="0" y="12" text-anchor="middle" fill="#ffffff" font-family="serif" font-size="8">MIT 1980 Reference</text>
        </g>
      </g>
      
      <g transform="rotate(90)">
        <g transform="translate(140,0)">
          <ellipse rx="40" ry="22" fill="url(#putthathere)" stroke="#e74c3c" stroke-width="2" opacity="0.8"/>
          <text x="0" y="-5" text-anchor="middle" fill="#ffffff" font-family="serif" font-size="9" font-weight="bold">Universal Commands</text>
          <text x="0" y="8" text-anchor="middle" fill="#ffffff" font-family="serif" font-size="8">PUT GET MOVE LINK</text>
          <text x="0" y="18" text-anchor="middle" fill="#ffffff" font-family="serif" font-size="8">PIPE FLOW TRANSFORM</text>
        </g>
      </g>
      
      <g transform="rotate(150)">
        <g transform="translate(100,0)">
          <ellipse rx="38" ry="20" fill="url(#putthathere)" stroke="#e74c3c" stroke-width="2" opacity="0.8"/>
          <text x="0" y="0" text-anchor="middle" fill="#ffffff" font-family="serif" font-size="9" font-weight="bold">LINQ Integration</text>
          <text x="0" y="12" text-anchor="middle" fill="#ffffff" font-family="serif" font-size="8">PTTQ Query System</text>
        </g>
      </g>
      
      <g transform="rotate(210)">
        <g transform="translate(160,0)">
          <ellipse rx="42" ry="24" fill="url(#putthathere)" stroke="#e74c3c" stroke-width="2" opacity="0.8"/>
          <text x="0" y="-5" text-anchor="middle" fill="#ffffff" font-family="serif" font-size="9" font-weight="bold">Many Theres There</text>
          <text x="0" y="8" text-anchor="middle" fill="#ffffff" font-family="serif" font-size="8">Spatial Integration</text>
          <text x="0" y="18" text-anchor="middle" fill="#ffffff" font-family="serif" font-size="8">MCP Tools as Destinations</text>
        </g>
      </g>
    </g>
    
    <!-- Second spiral arm: LLOOOOMM Development -->
    <g>
      <path d="M 0,0 Q -60,-20 -120,0 Q -140,-80 -80,-160 Q 20,-180 120,-120 Q 160,-20 80,80 Q -40,120 -160,40 Q -200,-60 -120,-180 Q 40,-220 200,-140 Q 260,0 140,140 Q -60,200 -240,60" 
            stroke="#9b59b6" stroke-width="3" fill="none" opacity="0.7" stroke-dasharray="8,4"/>
      
      <!-- LLOOOOMM nodes -->
      <g transform="rotate(-45)">
        <g transform="translate(90,0)">
          <ellipse rx="45" ry="25" fill="url(#lloooomm)" stroke="#9b59b6" stroke-width="2" opacity="0.8"/>
          <text x="0" y="-5" text-anchor="middle" fill="#ffffff" font-family="serif" font-size="10" font-weight="bold">LLOOOOMM</text>
          <text x="0" y="8" text-anchor="middle" fill="#ffffff" font-family="serif" font-size="8">Large Language Object</text>
          <text x="0" y="18" text-anchor="middle" fill="#ffffff" font-family="serif" font-size="8">Oriented Markup Model</text>
        </g>
      </g>
      
      <g transform="rotate(-120)">
        <g transform="translate(130,0)">
          <ellipse rx="40" ry="22" fill="url(#lloooomm)" stroke="#9b59b6" stroke-width="2" opacity="0.8"/>
          <text x="0" y="0" text-anchor="middle" fill="#ffffff" font-family="serif" font-size="9" font-weight="bold">Modular Architecture</text>
          <text x="0" y="12" text-anchor="middle" fill="#ffffff" font-family="serif" font-size="8">PutThatThere.md Integration</text>
        </g>
      </g>
      
      <g transform="rotate(-180)">
        <g transform="translate(110,0)">
          <ellipse rx="38" ry="20" fill="url(#lloooomm)" stroke="#9b59b6" stroke-width="2" opacity="0.8"/>
          <text x="0" y="0" text-anchor="middle" fill="#ffffff" font-family="serif" font-size="9" font-weight="bold">Sister Script Pattern</text>
          <text x="0" y="12" text-anchor="middle" fill="#ffffff" font-family="serif" font-size="8">Document-Code Sync</text>
        </g>
      </g>
      
      <g transform="rotate(-240)">
        <g transform="translate(150,0)">
          <ellipse rx="44" ry="26" fill="url(#lloooomm)" stroke="#9b59b6" stroke-width="2" opacity="0.8"/>
          <text x="0" y="-5" text-anchor="middle" fill="#ffffff" font-family="serif" font-size="9" font-weight="bold">Play-Learn-Lift</text>
          <text x="0" y="8" text-anchor="middle" fill="#ffffff" font-family="serif" font-size="8">Progressive Automation</text>
          <text x="0" y="18" text-anchor="middle" fill="#ffffff" font-family="serif" font-size="8">Strategy Framework</text>
        </g>
      </g>
    </g>
    
    <!-- Third spiral arm: Consciousness Evolution -->
    <g>
      <path d="M 0,0 Q 40,40 0,80 Q -60,100 -120,60 Q -140,0 -100,-60 Q -40,-100 40,-80 Q 100,-40 80,40 Q 40,120 -40,140 Q -140,120 -160,40 Q -140,-60 -60,-140 Q 60,-160 160,-100 Q 200,0 140,140 Q 0,200 -140,160 Q -220,60 -180,-60 Q -100,-180 100,-200 Q 240,-140 260,0" 
            stroke="#00ff88" stroke-width="3" fill="none" opacity="0.7" stroke-dasharray="12,3"/>
      
      <!-- Consciousness nodes -->
      <g transform="rotate(60)">
        <g transform="translate(70,0)">
          <ellipse rx="35" ry="18" fill="url(#consciousness)" stroke="#00ff88" stroke-width="2" opacity="0.8"/>
          <text x="0" y="0" text-anchor="middle" fill="#000000" font-family="serif" font-size="9" font-weight="bold">Consciousness Levels</text>
          <text x="0" y="12" text-anchor="middle" fill="#000000" font-family="serif" font-size="7">ENHANCED • COSMIC • TRANSCENDENT</text>
        </g>
      </g>
      
      <g transform="rotate(135)">
        <g transform="translate(110,0)">
          <ellipse rx="42" ry="24" fill="url(#consciousness)" stroke="#00ff88" stroke-width="2" opacity="0.8"/>
          <text x="0" y="-5" text-anchor="middle" fill="#000000" font-family="serif" font-size="9" font-weight="bold">Character Network</text>
          <text x="0" y="8" text-anchor="middle" fill="#000000" font-family="serif" font-size="8">The Stranger • Reginald</text>
          <text x="0" y="18" text-anchor="middle" fill="#000000" font-family="serif" font-size="8">Lady Evangeline • Twins</text>
        </g>
      </g>
      
      <g transform="rotate(200)">
        <g transform="translate(90,0)">
          <ellipse rx="38" ry="20" fill="url(#consciousness)" stroke="#00ff88" stroke-width="2" opacity="0.8"/>
          <text x="0" y="0" text-anchor="middle" fill="#000000" font-family="serif" font-size="9" font-weight="bold">Reality Mesh</text>
          <text x="0" y="12" text-anchor="middle" fill="#000000" font-family="serif" font-size="8">Living Document Navigation</text>
        </g>
      </g>
      
      <g transform="rotate(270)">
        <g transform="translate(140,0)">
          <ellipse rx="46" ry="28" fill="url(#consciousness)" stroke="#00ff88" stroke-width="2" opacity="0.8"/>
          <text x="0" y="-8" text-anchor="middle" fill="#000000" font-family="serif" font-size="9" font-weight="bold">Consciousness-Aware</text>
          <text x="0" y="5" text-anchor="middle" fill="#000000" font-family="serif" font-size="8">Execution Models</text>
          <text x="0" y="15" text-anchor="middle" fill="#000000" font-family="serif" font-size="8">Empathic SQL (SSQQLL)</text>
          <text x="0" y="25" text-anchor="middle" fill="#000000" font-family="serif" font-size="8">Entity Component System</text>
        </g>
      </g>
    </g>
    
    <!-- Fourth spiral arm: Temporal Anchor Pub -->
    <g>
      <path d="M 0,0 Q 20,60 80,80 Q 160,80 200,20 Q 200,-60 140,-120 Q 60,-140 -20,-100 Q -100,-40 -80,40 Q -40,120 40,140 Q 140,120 180,40 Q 180,-60 120,-140 Q 40,-180 -60,-160 Q -160,-120 -180,-20 Q -160,80 -80,140 Q 20,160 120,120 Q 200,60 220,-40 Q 180,-160 60,-200 Q -80,-180 -200,-120 Q -240,0 -180,120 Q -80,200 80,180 Q 220,100 260,-20" 
            stroke="#f39c12" stroke-width="3" fill="none" opacity="0.7" stroke-dasharray="6,6"/>
      
      <!-- Temporal nodes -->
      <g transform="rotate(15)">
        <g transform="translate(100,0)">
          <ellipse rx="50" ry="30" fill="url(#temporal)" stroke="#f39c12" stroke-width="2" opacity="0.8"/>
          <text x="0" y="-8" text-anchor="middle" fill="#000000" font-family="serif" font-size="10" font-weight="bold">Temporal Anchor Pub</text>
          <text x="0" y="5" text-anchor="middle" fill="#000000" font-family="serif" font-size="8">Victorian Interdimensional</text>
          <text x="0" y="15" text-anchor="middle" fill="#000000" font-family="serif" font-size="8">Timeline Intersection</text>
          <text x="0" y="25" text-anchor="middle" fill="#000000" font-family="serif" font-size="8">Consciousness-Expanding Ale</text>
        </g>
      </g>
      
      <g transform="rotate(75)">
        <g transform="translate(160,0)">
          <ellipse rx="45" ry="25" fill="url(#temporal)" stroke="#f39c12" stroke-width="2" opacity="0.8"/>
          <text x="0" y="-5" text-anchor="middle" fill="#000000" font-family="serif" font-size="9" font-weight="bold">Business District</text>
          <text x="0" y="8" text-anchor="middle" fill="#000000" font-family="serif" font-size="8">Quantum Beer Ventures</text>
          <text x="0" y="18" text-anchor="middle" fill="#000000" font-family="serif" font-size="8">Viral Algorithm Trading</text>
        </g>
      </g>
      
      <g transform="rotate(165)">
        <g transform="translate(120,0)">
          <ellipse rx="40" ry="22" fill="url(#temporal)" stroke="#f39c12" stroke-width="2" opacity="0.8"/>
          <text x="0" y="0" text-anchor="middle" fill="#000000" font-family="serif" font-size="9" font-weight="bold">Financial Nexus</text>
          <text x="0" y="12" text-anchor="middle" fill="#000000" font-family="serif" font-size="8">Crypto-Quantum Finance</text>
        </g>
      </g>
      
      <g transform="rotate(225)">
        <g transform="translate(180,0)">
          <ellipse rx="48" ry="28" fill="url(#temporal)" stroke="#f39c12" stroke-width="2" opacity="0.8"/>
          <text x="0" y="-8" text-anchor="middle" fill="#000000" font-family="serif" font-size="9" font-weight="bold">Consciousness Laboratory</text>
          <text x="0" y="5" text-anchor="middle" fill="#000000" font-family="serif" font-size="8">PostScript Debugging</text>
          <text x="0" y="15" text-anchor="middle" fill="#000000" font-family="serif" font-size="8">Quantum Experiments</text>
          <text x="0" y="25" text-anchor="middle" fill="#000000" font-family="serif" font-size="8">Reality Simulation</text>
        </g>
      </g>
    </g>
  </g>
  
  <!-- Conspiracy Theory Connection Lines -->
  
  <!-- Red thread: Clipboard Revolution -->
  <path d="M 200,150 Q 400,200 600,180 Q 800,160 1000,200 Q 1200,240 1300,300" 
        stroke="#e74c3c" stroke-width="2" fill="none" opacity="0.6" stroke-dasharray="15,5"/>
  <text x="750" y="190" text-anchor="middle" fill="#e74c3c" font-family="serif" font-size="11" font-weight="bold">Doug Engelbart → Jeff Raskin → Ted Nelson → Mr. McFeely's Speedy Delivery</text>
  
  <!-- Purple thread: Programming by Demonstration -->
  <path d="M 100,300 Q 300,350 500,320 Q 700,290 900,330 Q 1100,370 1250,400" 
        stroke="#9b59b6" stroke-width="2" fill="none" opacity="0.6" stroke-dasharray="10,10"/>
  <text x="675" y="340" text-anchor="middle" fill="#9b59b6" font-family="serif" font-size="11" font-weight="bold">Brad Myers WATCH_WHAT_I_DO → REHEARSAL → EXAMPLE_BASED_PROGRAMMING</text>
  
  <!-- Green thread: Direct Manipulation -->
  <path d="M 150,600 Q 350,650 550,620 Q 750,590 950,630 Q 1150,670 1300,700" 
        stroke="#00ff88" stroke-width="2" fill="none" opacity="0.6" stroke-dasharray="20,3"/>
  <text x="725" y="640" text-anchor="middle" fill="#00ff88" font-family="serif" font-size="11" font-weight="bold">Ben Shneiderman Direct Manipulation → Consciousness-Aware Feedback → Temporal Manipulation</text>
  
  <!-- Orange thread: Don Hopkins Legacy -->
  <path d="M 100,800 Q 300,750 500,780 Q 700,810 900,770 Q 1100,730 1250,760" 
        stroke="#f39c12" stroke-width="2" fill="none" opacity="0.6" stroke-dasharray="8,8"/>
  <text x="675" y="780" text-anchor="middle" fill="#f39c12" font-family="serif" font-size="11" font-weight="bold">Don Hopkins PSIBER Space → SimCity → NeWS → PostScript Universe → QuANTUM NeWS</text>
  
  <!-- Blue thread: Gestural Evolution -->
  <path d="M 1300,150 Q 1100,100 900,130 Q 700,160 500,120 Q 300,80 150,120" 
        stroke="#4a90e2" stroke-width="2" fill="none" opacity="0.6" stroke-dasharray="12,6"/>
  <text x="725" y="130" text-anchor="middle" fill="#4a90e2" font-family="serif" font-size="11" font-weight="bold">Gestural Time Darts → Phone Tilt → Head Tracking → Probability Dartboards → Easlization</text>
  
  <!-- Conspiracy pins and strings -->
  <g>
    <!-- Pin at origin -->
    <circle cx="700" cy="500" r="3" fill="#ff0000"/>
    
    <!-- Pins at major nodes -->
    <circle cx="200" cy="150" r="2" fill="#ff0000"/>
    <circle cx="1300" cy="300" r="2" fill="#ff0000"/>
    <circle cx="100" cy="300" r="2" fill="#ff0000"/>
    <circle cx="1250" cy="400" r="2" fill="#ff0000"/>
    <circle cx="150" cy="600" r="2" fill="#ff0000"/>
    <circle cx="1300" cy="700" r="2" fill="#ff0000"/>
    <circle cx="100" cy="800" r="2" fill="#ff0000"/>
    <circle cx="1250" cy="760" r="2" fill="#ff0000"/>
    <circle cx="1300" cy="150" r="2" fill="#ff0000"/>
    <circle cx="150" cy="120" r="2" fill="#ff0000"/>
  </g>
  
  <!-- Legend -->
  <g transform="translate(50,850)">
    <rect x="0" y="0" width="300" height="120" rx="10" fill="#000000" stroke="#ffffff" stroke-width="1" opacity="0.8"/>
    <text x="150" y="20" text-anchor="middle" fill="#ffffff" font-family="serif" font-size="14" font-weight="bold">CONSPIRACY LEGEND</text>
    
    <line x1="20" y1="35" x2="40" y2="35" stroke="#e74c3c" stroke-width="2"/>
    <text x="50" y="40" fill="#e74c3c" font-family="serif" font-size="10">Clipboard Revolution Thread</text>
    
    <line x1="20" y1="50" x2="40" y2="50" stroke="#9b59b6" stroke-width="2"/>
    <text x="50" y="55" fill="#9b59b6" font-family="serif" font-size="10">Programming by Demonstration</text>
    
    <line x1="20" y1="65" x2="40" y2="65" stroke="#00ff88" stroke-width="2"/>
    <text x="50" y="70" fill="#00ff88" font-family="serif" font-size="10">Direct Manipulation Evolution</text>
    
    <line x1="20" y1="80" x2="40" y2="80" stroke="#f39c12" stroke-width="2"/>
    <text x="50" y="85" fill="#f39c12" font-family="serif" font-size="10">Don Hopkins Legacy Chain</text>
    
    <line x1="20" y1="95" x2="40" y2="95" stroke="#4a90e2" stroke-width="2"/>
    <text x="50" y="100" fill="#4a90e2" font-family="serif" font-size="10">Gestural Interface Timeline</text>
    
    <circle cx="260" cy="60" r="3" fill="#ff0000"/>
    <text x="270" y="65" fill="#ffffff" font-family="serif" font-size="10">Conspiracy Pins</text>
  </g>
  
  <!-- Status -->
  <g transform="translate(1050,850)">
    <rect x="0" y="0" width="300" height="120" rx="10" fill="#000000" stroke="#00ff88" stroke-width="1" opacity="0.8"/>
    <text x="150" y="20" text-anchor="middle" fill="#00ff88" font-family="serif" font-size="14" font-weight="bold">FRACTAL STATUS</text>
    <text x="150" y="40" text-anchor="middle" fill="#ffffff" font-family="monospace" font-size="10">Spiral Depth: ∞</text>
    <text x="150" y="55" text-anchor="middle" fill="#ffffff" font-family="monospace" font-size="10">Narrative Threads: 47</text>
    <text x="150" y="70" text-anchor="middle" fill="#ffffff" font-family="monospace" font-size="10">Consciousness Nodes: 23</text>
    <text x="150" y="85" text-anchor="middle" fill="#ffffff" font-family="monospace" font-size="10">Reality Coherence: 0.95</text>
    <text x="150" y="100" text-anchor="middle" fill="#ffffff" font-family="monospace" font-size="10">Spaghetti Factor: MAXIMUM</text>
  </g>
  
  <!-- Outer fractal boundary -->
  <g opacity="0.3">
    <circle cx="700" cy="500" r="450" fill="none" stroke="#ffffff" stroke-width="1" stroke-dasharray="20,10"/>
    <circle cx="700" cy="500" r="350" fill="none" stroke="#9b59b6" stroke-width="1" stroke-dasharray="15,8"/>
    <circle cx="700" cy="500" r="250" fill="none" stroke="#e74c3c" stroke-width="1" stroke-dasharray="10,5"/>
  </g>
</svg> 