<?xml version="1.0" encoding="UTF-8"?>
<svg width="1000" height="1000" xmlns="http://www.w3.org/2000/svg">
  <defs>
    <radialGradient id="wasteSpiral" cx="50%" cy="50%" r="50%">
      <stop offset="0%" style="stop-color:#ff0000;stop-opacity:0.8"/>
      <stop offset="50%" style="stop-color:#ffff00;stop-opacity:0.4"/>
      <stop offset="100%" style="stop-color:#00ff00;stop-opacity:0.2"/>
    </radialGradient>
  </defs>
  
  <!-- Background -->
  <rect width="1000" height="1000" fill="#000022"/>
  
  <!-- Title -->
  <text x="500" y="50" text-anchor="middle" fill="#ff0000" font-family="monospace" font-size="24" font-weight="bold">
    💸 BORG FINANCIAL HEMORRHAGE SPIRAL 💸
  </text>
  <text x="500" y="75" text-anchor="middle" fill="#ffff00" font-family="monospace" font-size="14">
    🌀 RESISTANCE TO EFFICIENCY IS FUTILE 🌀
  </text>
  
  <!-- Central Waste Vortex -->
  <g transform="translate(500,500)">
    <circle cx="0" cy="0" r="50" fill="url(#wasteSpiral)" opacity="0.8"/>
    <text x="0" y="-5" text-anchor="middle" fill="#ffffff" font-family="monospace" font-size="12" font-weight="bold">
      💰 $468,306
    </text>
    <text x="0" y="10" text-anchor="middle" fill="#ffffff" font-family="monospace" font-size="10">
      MONTHLY WASTE
    </text>
  </g>
  
  <!-- Spiral Arms with Cost Breakdowns -->
  
  <!-- EC2 Waste Spiral Arm -->
  <path d="M 500,500 Q 400,400 300,350 Q 200,300 150,200 Q 100,100 50,50" 
        fill="none" stroke="#ff0000" stroke-width="8" opacity="0.7"/>
  <g transform="translate(200,275)">
    <circle cx="0" cy="0" r="25" fill="#330000" stroke="#ff0000" stroke-width="2"/>
    <text x="0" y="-35" text-anchor="middle" fill="#ff0000" font-family="monospace" font-size="10" font-weight="bold">
      🖥️ EC2 WASTE
    </text>
    <text x="0" y="0" text-anchor="middle" fill="#ff0000" font-family="monospace" font-size="8">
      $285,000
    </text>
    <text x="0" y="12" text-anchor="middle" fill="#ff0000" font-family="monospace" font-size="8">
      15K STOPPED
    </text>
  </g>
  
  <!-- Load Balancer Waste Spiral Arm -->
  <path d="M 500,500 Q 600,400 700,350 Q 800,300 850,200 Q 900,100 950,50" 
        fill="none" stroke="#ff6600" stroke-width="6" opacity="0.7"/>
  <g transform="translate(775,275)">
    <circle cx="0" cy="0" r="20" fill="#331100" stroke="#ff6600" stroke-width="2"/>
    <text x="0" y="-30" text-anchor="middle" fill="#ff6600" font-family="monospace" font-size="10" font-weight="bold">
      ⚖️ LB WASTE
    </text>
    <text x="0" y="0" text-anchor="middle" fill="#ff6600" font-family="monospace" font-size="8">
      $127,000
    </text>
    <text x="0" y="12" text-anchor="middle" fill="#ff6600" font-family="monospace" font-size="8">
      12 REQ/MONTH
    </text>
  </g>
  
  <!-- Database Waste Spiral Arm -->
  <path d="M 500,500 Q 400,600 300,650 Q 200,700 150,800 Q 100,900 50,950" 
        fill="none" stroke="#ffff00" stroke-width="5" opacity="0.7"/>
  <g transform="translate(225,725)">
    <circle cx="0" cy="0" r="18" fill="#333300" stroke="#ffff00" stroke-width="2"/>
    <text x="0" y="-28" text-anchor="middle" fill="#ffff00" font-family="monospace" font-size="10" font-weight="bold">
      🗄️ DB WASTE
    </text>
    <text x="0" y="0" text-anchor="middle" fill="#ffff00" font-family="monospace" font-size="8">
      $42,306
    </text>
    <text x="0" y="12" text-anchor="middle" fill="#ffff00" font-family="monospace" font-size="8">
      99.7% REDUNDANT
    </text>
  </g>
  
  <!-- Storage Waste Spiral Arm -->
  <path d="M 500,500 Q 600,600 700,650 Q 800,700 850,800 Q 900,900 950,950" 
        fill="none" stroke="#00ff00" stroke-width="4" opacity="0.7"/>
  <g transform="translate(775,725)">
    <circle cx="0" cy="0" r="15" fill="#003300" stroke="#00ff00" stroke-width="2"/>
    <text x="0" y="-25" text-anchor="middle" fill="#00ff00" font-family="monospace" font-size="10" font-weight="bold">
      🪣 S3 WASTE
    </text>
    <text x="0" y="0" text-anchor="middle" fill="#00ff00" font-family="monospace" font-size="8">
      $14,000
    </text>
    <text x="0" y="12" text-anchor="middle" fill="#00ff00" font-family="monospace" font-size="8">
      ORPHANED
    </text>
  </g>
  
  <!-- Efficiency Metrics -->
  <g id="efficiency-metrics" transform="translate(100,850)">
    <rect x="0" y="0" width="800" height="120" fill="#001122" stroke="#00ffff" stroke-width="2"/>
    <text x="400" y="20" text-anchor="middle" fill="#00ffff" font-family="monospace" font-size="14" font-weight="bold">
      🎯 COLLECTIVE EFFICIENCY ANALYSIS 🎯
    </text>
    
    <text x="50" y="45" fill="#ff0000" font-family="monospace" font-size="12">
      🚨 Current Monthly Cost: $832,159
    </text>
    <text x="50" y="65" fill="#ffff00" font-family="monospace" font-size="12">
      ⚡ Optimization Potential: $468,306 (56.3%)
    </text>
    <text x="50" y="85" fill="#00ff00" font-family="monospace" font-size="12">
      🎯 Post-Optimization Cost: $363,853
    </text>
    <text x="50" y="105" fill="#00ffff" font-family="monospace" font-size="12">
      🤖 Collective Efficiency Rating: 43.7% → 100%
    </text>
  </g>
  
  <!-- Borg Cube Corners -->
  <g id="borg-cubes">
    <rect x="20" y="20" width="30" height="30" fill="#003300" stroke="#00ff00" stroke-width="2"/>
    <text x="35" y="40" text-anchor="middle" fill="#00ff00" font-family="monospace" font-size="16">🤖</text>
    
    <rect x="950" y="20" width="30" height="30" fill="#003300" stroke="#00ff00" stroke-width="2"/>
    <text x="965" y="40" text-anchor="middle" fill="#00ff00" font-family="monospace" font-size="16">🤖</text>
    
    <rect x="20" y="950" width="30" height="30" fill="#003300" stroke="#00ff00" stroke-width="2"/>
    <text x="35" y="970" text-anchor="middle" fill="#00ff00" font-family="monospace" font-size="16">🤖</text>
    
    <rect x="950" y="950" width="30" height="30" fill="#003300" stroke="#00ff00" stroke-width="2"/>
    <text x="965" y="970" text-anchor="middle" fill="#00ff00" font-family="monospace" font-size="16">🤖</text>
  </g>
  
  <!-- Animated Pulse -->
  <circle cx="500" cy="500" r="70" fill="none" stroke="#ff0000" stroke-width="2" opacity="0.3">
    <animate attributeName="r" values="70;120;70" dur="3s" repeatCount="indefinite"/>
    <animate attributeName="opacity" values="0.3;0.1;0.3" dur="3s" repeatCount="indefinite"/>
  </circle>
  
</svg> 