<svg width="1000" height="1000">
<path d="M 385.0 438.0 399.0 438.0 408.0 425.2 418.4 425.2 422.0 419.0 427.2 395.2 426.0 355.0 422.0 342.0 410.0 329.0 397.1 321.0 388.2 325.0 383.0 329.0 383.0 344.0 379.4 408.1 383.0 432.0 z"/>
<path d="M 223.4 395.2 271.2 429.4 266.0 436.0 270.0 440.1 270.0 451.0 271.2 459.3 273.0 468.0 254.0 459.3 190.0 415.0 176.0 406.0 174.0 363.2 181.0 348.2 204.0 329.0 207.4 335.4 216.3 340.0 220.0 340.0 222.0 389.0 z"/>
<path d="M 222.0 393.1 271.2 429.4 280.1 427.3 372.3 438.0 378.0 419.0 378.0 378.2 266.0 288.4 229.0 314.1 229.0 329.0 220.0 335.4 220.0 344.0 220.0 391.0 z"/>
<path d="M 220.0 254.2 220.0 303.4 229.0 310.0 232.2 312.0 266.0 295.0 270.0 295.0 376.0 378.2 381.1 376.0 383.0 333.3 372.3 329.0 257.0 237.1 234.0 248.0 z"/>
<path d="M 223.4 256.4 223.4 306.0 211.0 308.0 204.0 316.2 202.1 331.1 177.2 348.2 176.0 318.3 184.3 299.1 199.0 280.0 222.0 261.0 z"/>
<path d="M 452.1 363.2 520.0 412.3 541.0 434.0 562.0 442.3 596.0 468.0 606.3 491.4 610.0 513.0 612.0 538.4 598.0 590.0 578.0 626.0 553.1 654.0 530.1 669.0 509.0 671.0 498.2 662.3 491.1 650.0 475.1 641.0 449.0 626.0 431.0 620.0 413.1 611.0 402.4 598.2 374.0 579.0 358.1 571.0 346.0 560.0 342.1 560.0 339.0 560.0 356.3 560.0 369.0 558.0 378.0 543.0 390.0 530.0 404.2 511.0 418.4 489.3 427.2 470.0 434.3 444.4 445.0 412.3 450.3 387.0 452.1 370.0 z"/>
<path d="M 298.0 500.0 337.0 476.4 363.4 455.1 374.0 451.0 388.2 476.4 388.2 494.0 374.0 511.0 362.0 519.2 353.0 530.0 346.0 530.0 339.0 538.4 335.0 538.4 330.0 534.1 323.0 534.1 310.2 526.0 301.4 523.4 300.0 515.0 z"/>
<rect x="243.0" y="66.2" width="115.0" height="77.0" rx="10" ry="10"/>
<rect x="0.0" y="664.0" width="140.0" height="64.0" rx="10" ry="10"/>
<rect x="567.0" y="22.0" width="150.0" height="70.0" rx="10" ry="10"/>
<rect x="99.2" y="-10.0" width="180.0" height="65.0" rx="10" ry="10"/>
<rect x="32.0" y="115.0" width="132.0" height="60.0" rx="10" ry="10"/>
<rect x="210.0" y="709.3" width="142.0" height="56.0" rx="10" ry="10"/>
<rect x="-4.0" y="825.0" width="272.0" height="65.0" rx="10" ry="10"/>
</svg>
