<svg width="1000" height="1000">
<path d="M 259.0 686.0 98.0 619.0 103.1 603.1 107.0 605.1 188.0 403.0 188.0 391.0 203.0 361.4 280.0 171.0 278.0 165.0 283.2 157.1 287.0 157.1 411.0 212.1 411.0 220.0 407.1 224.0 405.2 226.0 338.0 428.2 340.0 436.1 375.2 448.0 379.0 428.2 375.2 424.3 385.0 422.3 400.0 399.0 428.0 373.2 482.1 356.0 535.0 373.2 587.2 230.0 574.0 220.0 567.0 198.4 572.2 187.0 585.3 173.0 598.4 169.0 610.0 171.0 617.2 175.0 621.0 179.0 625.0 183.0 627.0 189.0 625.0 196.4 623.0 204.3 619.1 212.1 610.0 222.0 602.2 226.0 597.0 230.0 542.2 379.1 576.0 411.0 589.1 428.2 598.4 452.0 606.0 479.3 604.1 491.1 619.1 517.0 627.0 536.3 645.4 540.2 670.0 342.0 668.0 334.0 670.0 326.1 677.2 326.1 807.0 358.0 811.0 363.4 807.0 371.3 805.0 371.3 794.0 566.0 799.2 580.0 794.0 599.2 792.0 603.1 780.4 843.0 784.2 849.0 784.2 857.0 779.0 859.0 773.0 857.0 662.2 827.1 610.0 813.3 610.0 804.0 617.2 798.0 644.0 572.0 640.0 564.0 640.0 552.0 629.0 548.1 630.3 570.0 625.0 589.3 621.0 603.1 619.1 609.0 612.0 621.0 604.1 633.0 587.2 650.2 561.0 668.0 540.3 674.0 537.0 678.0 540.3 682.0 557.2 692.0 570.3 701.3 576.0 725.0 578.0 743.0 574.0 756.3 557.2 764.2 518.0 766.2 497.1 764.2 493.4 764.2 490.0 770.1 482.1 768.1 475.0 764.2 469.0 758.3 465.2 749.0 454.0 741.0 445.0 735.0 435.2 729.0 426.0 723.0 418.3 715.1 415.0 713.1 407.1 735.0 418.3 745.0 424.0 752.4 426.0 762.2 424.0 772.0 417.0 784.0 401.4 794.0 392.1 796.0 377.1 788.0 368.0 780.0 364.0 768.1 366.0 756.3 370.0 749.0 375.2 743.0 381.0 739.0 388.3 737.0 396.0 735.0 407.1 705.2 396.0 692.0 390.2 674.0 396.0 664.0 398.0 650.2 409.0 646.3 420.2 642.4 430.0 642.4 433.3 637.0 430.0 629.0 422.1 615.0 415.0 583.4 413.0 576.0 396.0 556.0 381.0 519.0 375.2 483.2 375.2 466.0 370.0 462.0 334.0 450.0 325.0 458.0 311.4 505.0 261.0 670.0 263.0 682.0 255.1 684.0 251.4 684.0 z"/>
</svg>
