<svg width="1000" height="1000">
<path d="M 387.3 984.0 362.0 955.0 358.3 940.2 343.0 944.0 324.2 938.4 314.0 929.3 312.2 913.0 317.3 889.4 314.0 873.1 295.2 897.0 283.2 899.0 259.3 875.0 259.3 868.0 268.0 866.0 282.0 873.1 288.3 871.3 300.3 855.0 294.0 842.3 297.0 837.0 311.0 835.1 307.1 754.0 305.4 723.0 311.0 712.0 312.2 710.1 295.2 705.0 287.0 699.2 285.0 692.0 285.0 688.4 287.0 685.0 312.2 696.0 323.0 685.0 304.0 667.0 305.4 654.0 312.2 649.0 323.0 650.3 331.0 663.0 348.1 676.0 363.4 665.0 374.0 663.0 413.0 688.4 411.2 694.0 406.1 694.0 408.0 736.0 408.0 759.0 396.0 810.0 384.0 853.2 374.0 886.0 396.0 920.2 406.1 944.0 408.0 967.3 408.0 975.0 401.0 973.0 394.1 973.0 391.0 987.3 z"/>
</svg>
