<svg width="1000" height="1000">
<path d="M 220.4 746.2 207.0 739.0 207.0 729.1 186.0 723.4 184.0 710.2 164.3 703.0 162.4 701.0 164.3 682.0 153.0 674.2 155.0 659.0 157.0 652.0 149.0 652.0 149.0 646.0 147.0 633.0 157.0 625.0 157.0 617.4 161.0 616.0 161.0 604.1 182.0 597.0 182.0 585.2 193.4 580.0 203.0 576.0 205.0 564.3 211.0 561.0 228.2 561.0 230.1 568.1 232.1 580.0 253.3 585.2 255.3 600.3 275.0 610.0 277.0 633.0 284.3 636.3 286.2 657.1 292.0 659.0 292.0 680.0 286.2 684.0 284.3 697.0 279.0 697.0 279.0 708.3 257.2 716.0 253.3 727.2 248.0 731.0 240.0 733.0 238.0 735.0 230.1 746.2 219.0 750.0 z"/>
</svg>
