<svg viewBox="0 0 400 500" xmlns="http://www.w3.org/2000/svg">
  <!-- Nelson: The Peaceful Integrator Cat -->
  
  <!-- Abstract cat body - Miró style biomorphic form -->
  <path d="M200 250 Q150 200 120 250 T150 350 Q200 380 250 350 T280 250 Q250 200 200 250" 
        fill="#3E2723" stroke="#8D6E63" stroke-width="3"/>
  
  <!-- Chocolate spots -->
  <ellipse cx="180" cy="270" rx="25" ry="15" fill="#5D4037" transform="rotate(-20 180 270)"/>
  <ellipse cx="220" cy="290" rx="20" ry="18" fill="#6D4C41" transform="rotate(30 220 290)"/>
  
  <!-- Klee-inspired geometric eyes -->
  <circle cx="170" cy="230" r="15" fill="#FFF59D"/>
  <circle cx="230" cy="230" r="15" fill="#FFF59D"/>
  <circle cx="170" cy="232" r="8" fill="#1B5E20"/>
  <circle cx="230" cy="232" r="8" fill="#1B5E20"/>
  
  <!-- Dadaist whiskers -->
  <line x1="120" y1="240" x2="50" y2="220" stroke="#424242" stroke-width="2" stroke-dasharray="5,3"/>
  <line x1="280" y1="240" x2="350" y2="220" stroke="#424242" stroke-width="2" stroke-dasharray="5,3"/>
  <line x1="125" y1="250" x2="60" y2="250" stroke="#424242" stroke-width="2" stroke-dasharray="5,3"/>
  <line x1="275" y1="250" x2="340" y2="250" stroke="#424242" stroke-width="2" stroke-dasharray="5,3"/>
  
  <!-- Peaceful integration aura -->
  <circle cx="200" cy="250" r="120" fill="none" stroke="#4CAF50" stroke-width="1" 
          stroke-dasharray="10,5" opacity="0.5"/>
  <circle cx="200" cy="250" r="140" fill="none" stroke="#81C784" stroke-width="1" 
          stroke-dasharray="5,10" opacity="0.3"/>
  
  <!-- Text callouts in various artistic styles -->
  <text x="50" y="50" font-family="Courier" font-size="12" fill="#E91E63" transform="rotate(-15 50 50)">
    "Refactors with love"
  </text>
  
  <text x="250" y="80" font-family="Arial Black" font-size="14" fill="#3F51B5">
    T.I.E.*
  </text>
  <text x="240" y="95" font-family="Arial" font-size="8" fill="#3F51B5">
    *Together In Elegance
  </text>
  
  <text x="300" y="150" font-family="Georgia" font-size="11" fill="#FF5722" font-style="italic">
    Merges branches<tspan x="310" dy="12">of reality</tspan>
  </text>
  
  <text x="20" y="350" font-family="Impact" font-size="16" fill="#9C27B0" letter-spacing="2">
    PEACEFUL
  </text>
  
  <text x="150" y="420" font-family="Comic Sans MS" font-size="10" fill="#009688">
    "No conflicts, only harmony"
  </text>
  
  <!-- Constructivist tail -->
  <path d="M250 320 Q300 340 320 380 Q310 390 290 385 Q280 360 250 340" 
        fill="#3E2723" stroke="#795548" stroke-width="2"/>
  
  <!-- Suprematist paws -->
  <rect x="160" y="360" width="20" height="30" rx="10" fill="#3E2723"/>
  <rect x="220" y="360" width="20" height="30" rx="10" fill="#3E2723"/>
  
  <!-- Abstract debugging symbols floating around -->
  <text x="80" y="180" font-size="20" fill="#FFC107" opacity="0.7">{ }</text>
  <text x="320" y="200" font-size="18" fill="#00BCD4" opacity="0.7">∫</text>
  <text x="100" y="400" font-size="16" fill="#CDDC39" opacity="0.7">λ</text>
  <text x="280" y="380" font-size="22" fill="#FF9800" opacity="0.7">∞</text>
  
  <!-- JUSTICE badge -->
  <rect x="180" y="180" width="40" height="20" rx="10" fill="#FFD700" stroke="#FFA000"/>
  <text x="200" y="195" font-family="Arial" font-size="10" text-anchor="middle" fill="#000">
    T
  </text>
  
  <!-- Artist signature -->
  <text x="10" y="490" font-family="Brush Script MT" font-size="8" fill="#757575">
    After Miró, Klee &amp; The Dada Cats of Zürich
  </text>
</svg> 